<svg width="140" height="140" viewBox="0 0 140 140" fill="none" xmlns="http://www.w3.org/2000/svg">
<g clip-path="url(#clip0_8006_828)">
<path d="M45.3161 69.7594C46.4491 69.7594 47.3671 68.8411 47.3671 67.7084V40.7262C47.2731 38.0104 43.3584 38.0126 43.2651 40.7262V67.7084C43.2651 68.8411 44.1832 69.7594 45.3161 69.7594Z" fill="white"/>
<path d="M55.1838 69.7594C56.3168 69.7594 57.2348 68.8411 57.2348 67.7084V40.7262C57.1407 38.0104 53.2261 38.0126 53.1328 40.7262V67.7084C53.1328 68.8411 54.0508 69.7594 55.1838 69.7594Z" fill="white"/>
<path d="M65.0515 69.7594C66.1845 69.7594 67.1025 68.8411 67.1025 67.7084V40.7262C67.0084 38.0104 63.0937 38.0126 63.0005 40.7262V67.7084C63.0005 68.8411 63.9185 69.7594 65.0515 69.7594Z" fill="white"/>
<path d="M74.9192 69.7594C76.0521 69.7594 76.9702 68.8411 76.9702 67.7084V40.7262C76.8761 38.0104 72.9614 38.0126 72.8682 40.7262V67.7084C72.8682 68.8411 73.7862 69.7594 74.9192 69.7594Z" fill="white"/>
<path d="M84.7866 69.7594C85.9196 69.7594 86.8376 68.8411 86.8376 67.7084V40.7262C86.7435 38.0104 82.8288 38.0126 82.7356 40.7262V67.7084C82.7356 68.8411 83.6536 69.7594 84.7866 69.7594Z" fill="white"/>
<path d="M110.545 73.7507H114.972C117.688 73.6566 117.686 69.7419 114.972 69.6487H110.545C107.83 69.7428 107.832 73.6577 110.545 73.7507Z" fill="white"/>
<path d="M116.727 89.4556C113.335 89.4556 110.574 92.2157 110.574 95.6086C110.884 103.76 122.572 103.758 122.88 95.6086C122.88 92.2159 120.12 89.4556 116.727 89.4556ZM116.727 97.6596C115.596 97.6596 114.676 96.7396 114.676 95.6086C114.773 92.8941 118.683 92.8947 118.778 95.6086C118.778 96.7396 117.859 97.6596 116.727 97.6596Z" fill="white"/>
<path d="M52.7455 89.4553C49.3529 89.4553 46.5925 92.2154 46.5925 95.6083C46.9018 103.76 58.5903 103.758 58.8985 95.6083C58.8985 92.2157 56.1382 89.4553 52.7455 89.4553ZM52.7455 97.6593C51.6145 97.6593 50.6945 96.7394 50.6945 95.6083C50.7908 92.8939 54.7008 92.8944 54.7965 95.6083C54.7965 96.7394 53.8766 97.6593 52.7455 97.6593Z" fill="white"/>
<path d="M140 79.5V72.8994C140 71.5022 139.112 70.3115 137.872 69.8529V68.831C137.872 66.8358 136.701 65.0057 134.888 64.1692L130.793 62.2768C130.798 62.1724 130.809 62.069 130.809 61.9631V58.203C130.809 55.0961 128.281 52.5685 125.174 52.5685H124.764L122.9 45.0022C129.304 42.6113 127.752 33.1925 120.834 33.0632H116.117C113.402 33.1572 113.404 37.0719 116.117 37.1652H120.834C123.543 37.2617 123.541 41.1633 120.834 41.2587H98.2099V37.1652H105.908C108.624 37.0711 108.621 33.1564 105.908 33.0632H97.8361C97.1084 31.3321 95.3956 30.1133 93.4034 30.1133H38.0931C35.4429 30.1133 33.2867 32.2696 33.2867 34.9197V75.1071C32.3093 75.6433 31.645 76.6817 31.645 77.8729V86.259C30.6562 86.9222 30.0034 88.0494 30.0034 89.3271V94.2413C30.0034 96.277 31.6595 97.9331 33.6952 97.9331H38.5793C41.4814 113.877 64.0153 113.866 66.9116 97.9331H70.2096C72.9254 97.839 72.9232 93.9243 70.2096 93.8311H66.9884C66.8096 92.3896 66.4166 91.0144 65.8418 89.7373H103.631C103.056 91.0146 102.663 92.3896 102.484 93.8311H79.6286C76.9128 93.9251 76.915 97.8398 79.6286 97.9331H102.561C105.463 113.877 127.997 113.866 130.893 97.9331H136.308C138.344 97.9331 140 96.277 140 94.2413V89.3271C140 87.8509 139.127 86.5782 137.872 85.9878V82.5465C139.112 82.0878 140 80.8972 140 79.5ZM135.898 73.7507V78.6485H133.617C132.638 78.6485 131.842 77.8519 131.842 76.8728V75.526C131.842 74.547 132.638 73.7504 133.617 73.7504L135.898 73.7507ZM126.706 58.2033V61.9634C126.706 62.8084 126.019 63.4959 125.174 63.4959H122.604V56.6705H125.174C126.019 56.6705 126.706 57.358 126.706 58.2033ZM107.065 45.3612L118.764 45.3607L120.61 52.857C119.372 53.3946 118.502 54.6285 118.502 56.0623V59.7781H108.52C107.717 59.7781 107.065 59.127 107.065 58.3269V45.3612ZM38.0931 34.2153H93.4034C93.792 34.2153 94.1079 34.5314 94.1079 34.9197V74.7196H37.3887V34.9197C37.3887 34.5314 37.7045 34.2153 38.0931 34.2153ZM34.1054 89.7373H39.6491C39.0743 91.0146 38.6813 92.3896 38.5025 93.8311H34.1054V89.7373ZM52.7455 105.864C47.0907 105.864 42.4905 101.263 42.4905 95.6086C43.0059 82.0225 62.4872 82.0263 63.0005 95.6086C63.0005 101.263 58.4002 105.864 52.7455 105.864ZM63.0585 85.6353C57.7032 79.8397 47.7861 79.8413 42.4328 85.6353H35.747V78.8216H95.3393C96.8513 78.8216 98.0909 77.6462 98.1992 76.1618C98.2063 76.0926 98.2099 76.0226 98.2099 75.9515V45.3615L102.963 45.3612V58.3269C102.963 61.3889 105.456 63.8802 108.52 63.8802H118.502V64.1044C118.502 66.0307 120.07 67.5979 121.996 67.5979H125.174C126.694 67.5979 128.073 66.99 129.088 66.0077L133.168 67.893C133.534 68.062 133.77 68.4301 133.77 68.831V69.6487H133.617C130.376 69.6487 127.739 72.2854 127.739 75.5263V76.8731C127.739 80.114 130.376 82.7507 133.617 82.7507H133.77V85.6353H127.04C121.685 79.8397 111.768 79.8413 106.414 85.6353H63.0585ZM116.727 105.864C111.073 105.864 106.472 101.263 106.472 95.6086C106.988 82.0225 126.469 82.0263 126.982 95.6086C126.982 101.263 122.382 105.864 116.727 105.864ZM135.898 93.8311H130.97C130.792 92.3896 130.399 91.0144 129.824 89.7373H135.898V93.8311Z" fill="white"/>
<path d="M2.03593 42.1911H21.6714C24.3872 42.097 24.385 38.1824 21.6714 38.0891H2.03593C-0.679599 38.1832 -0.677685 42.0981 2.03593 42.1911Z" fill="white"/>
<path d="M21.9991 50.8511H2.03603C-0.67977 50.9451 -0.677583 54.8598 2.03603 54.9531H21.9991C24.7149 54.8593 24.713 50.9443 21.9991 50.8511Z" fill="white"/>
<path d="M21.9991 63.613H2.03603C-0.67977 63.7071 -0.677583 67.6218 2.03603 67.715H21.9991C24.7149 67.621 24.713 63.706 21.9991 63.613Z" fill="white"/>
<path d="M21.9991 76.3745H2.03603C-0.67977 76.4686 -0.677583 80.3833 2.03603 80.4765H21.9991C24.7149 80.3827 24.713 76.4678 21.9991 76.3745Z" fill="white"/>
</g>
<defs>
<clipPath id="clip0_8006_828">
<rect width="140" height="140" fill="white"/>
</clipPath>
</defs>
</svg>
