<svg width="140" height="140" viewBox="0 0 140 140" fill="none" xmlns="http://www.w3.org/2000/svg">
<path d="M103.264 80.4577C97.7786 76.8432 90.51 80.7322 90.3327 87.1932C90.1469 93.9287 97.6504 98.1104 103.264 94.3966C108.887 98.1157 116.38 93.9223 116.196 87.1943C116.019 80.7429 108.758 76.8389 103.264 80.4577ZM105.307 90.8195C104.696 90.3602 103.98 90.1295 103.264 90.1295C101.215 90.1295 101.06 91.6708 98.6747 91.6708C96.2928 91.6708 94.367 89.7118 94.4332 87.3064C94.5272 83.8618 98.5252 81.9531 101.262 84.0647C102.441 84.9737 104.088 84.9748 105.267 84.0647C108.008 81.9509 112.002 83.866 112.096 87.3064C112.194 90.8836 108.116 92.9354 105.307 90.8195Z" fill="white"/>
<path d="M62.8875 126.429C62.8875 122.597 59.7697 119.479 55.9373 119.479C52.1049 119.479 48.9871 122.597 48.9871 126.429C48.9871 130.262 52.1049 133.38 55.9373 133.38C59.7697 133.38 62.8875 130.262 62.8875 126.429ZM55.9373 129.278C54.3672 129.278 53.0886 128.001 53.0886 126.429C53.0886 124.858 54.3672 123.581 55.9373 123.581C57.5085 123.581 58.7859 124.858 58.7859 126.429C58.7859 128.001 57.5085 129.278 55.9373 129.278Z" fill="white"/>
<path d="M61.579 13.0471C62.7122 13.0471 63.6308 12.1285 63.6308 10.9963C63.6308 9.86307 62.7122 8.94556 61.579 8.94556H50.2954C49.1621 8.94556 48.2446 9.86307 48.2446 10.9963C48.2446 12.1285 49.1621 13.0471 50.2954 13.0471H61.579Z" fill="white"/>
<path d="M115.349 42.3635H96.5619V9.66642C96.5619 4.33654 92.2253 0 86.8954 0H24.98C19.649 0 15.3125 4.33654 15.3125 9.66642V130.333C15.3125 135.663 19.649 140 24.98 140H51.152C52.2853 140 53.2028 139.082 53.2028 137.949C53.2028 136.817 52.2853 135.898 51.152 135.898H24.98C21.9113 135.898 19.4141 133.402 19.4141 130.333V9.66642C19.4141 6.59774 21.9113 4.10155 24.98 4.10155H86.8954C89.9641 4.10155 92.4603 6.59774 92.4603 9.66642V42.3635H87.1336C87.1336 40.3907 87.1336 24.8849 87.1336 22.9698C87.1336 20.6669 85.2591 18.7924 82.9562 18.7924C79.5415 18.7924 30.3249 18.7924 28.9192 18.7924C26.6164 18.7924 24.7429 20.6669 24.7429 22.9698V113.042C24.7429 115.346 26.6164 117.219 28.9192 117.219H82.9562C85.2591 117.219 87.1336 115.346 87.1336 113.042V104.199H92.4603V130.333C92.4603 133.402 89.9641 135.898 86.8954 135.898H60.7234C59.5901 135.898 58.6716 136.817 58.6716 137.949C58.6716 139.082 59.5901 140 60.7234 140H86.8954C92.2253 140 96.5619 135.663 96.5619 130.333V104.199H115.349C120.566 104.199 124.809 99.9551 124.809 94.7384V81.2471C124.809 80.1149 123.892 79.1963 122.758 79.1963C121.625 79.1963 120.708 80.1149 120.708 81.2471V94.7384C120.708 97.6928 118.303 100.097 115.349 100.097C112.53 100.097 60.8057 100.097 57.988 100.097V68.496H120.708V71.6768C120.708 72.809 121.625 73.7276 122.758 73.7276C123.891 73.7276 124.809 72.809 124.809 71.6768V51.8238C124.809 46.6071 120.566 42.3635 115.349 42.3635ZM41.0092 22.8939H82.9552C82.9968 22.8939 83.031 22.9281 83.031 22.9698V29.3421H41.0092V22.8939ZM28.8434 22.9698C28.8434 22.9281 28.8776 22.8939 28.9192 22.8939H36.9077V29.3421H28.8434V22.9698ZM55.9372 38.6507C54.805 38.6507 53.8864 39.5683 53.8864 40.7015V106.63C53.8864 107.762 54.805 108.681 55.9372 108.681C57.0705 108.681 57.988 107.762 57.988 106.63V104.199H83.031V113.042C83.031 113.083 82.9968 113.117 82.9552 113.117H28.9192C28.8776 113.117 28.8434 113.083 28.8434 113.042V33.4437H83.031V42.3635H57.988V40.7015C57.988 39.5683 57.0705 38.6507 55.9372 38.6507ZM120.708 64.3944H57.988V57.9056H120.708V64.3944ZM120.708 53.8041H57.988V46.4651H115.349C118.303 46.4651 120.708 48.8694 120.708 51.8238V53.8041Z" fill="white"/>
</svg>
