<svg width="140" height="140" viewBox="0 0 140 140" fill="none" xmlns="http://www.w3.org/2000/svg">
<g clip-path="url(#clip0_8006_852)">
<path d="M100.938 111.875C95.8246 111.875 91.6643 116.036 91.6643 121.15C91.6643 126.263 95.8246 130.424 100.938 130.424C106.052 130.424 110.212 126.263 110.212 121.15C110.212 116.036 106.052 111.875 100.938 111.875ZM100.938 126.322C98.0862 126.322 95.7659 124.002 95.7659 121.15C95.7659 118.297 98.0862 115.977 100.938 115.977C103.791 115.977 106.111 118.297 106.111 121.15C106.111 124.002 103.791 126.322 100.938 126.322Z" fill="white"/>
<path d="M77.8208 88.68C78.9536 88.68 79.8716 87.7621 79.8716 86.6292V19.7707C79.8716 18.6379 78.9536 17.72 77.8208 17.72C76.6879 17.72 75.77 18.6379 75.77 19.7707V86.6295C75.77 87.7621 76.6882 88.68 77.8208 88.68Z" fill="white"/>
<path d="M87.7649 88.68C88.8977 88.68 89.8157 87.7621 89.8157 86.6292V19.7707C89.8157 18.6379 88.8977 17.72 87.7649 17.72C86.632 17.72 85.7141 18.6379 85.7141 19.7707V86.6295C85.7141 87.7621 86.6323 88.68 87.7649 88.68Z" fill="white"/>
<path d="M97.709 88.68C98.8418 88.68 99.7597 87.7621 99.7597 86.6292V19.7707C99.7597 18.6379 98.8418 17.72 97.709 17.72C96.5761 17.72 95.6582 18.6379 95.6582 19.7707V86.6295C95.6582 87.7621 96.5761 88.68 97.709 88.68Z" fill="white"/>
<path d="M107.653 88.68C108.786 88.68 109.704 87.7621 109.704 86.6292V19.7707C109.704 18.6379 108.786 17.72 107.653 17.72C106.52 17.72 105.602 18.6379 105.602 19.7707V86.6295C105.602 87.7621 106.52 88.68 107.653 88.68Z" fill="white"/>
<path d="M117.597 88.68C118.73 88.68 119.648 87.7621 119.648 86.6292V19.7707C119.648 18.6379 118.73 17.72 117.597 17.72C116.464 17.72 115.546 18.6379 115.546 19.7707V86.6295C115.546 87.7621 116.464 88.68 117.597 88.68Z" fill="white"/>
<path d="M127.541 88.68C128.673 88.68 129.591 87.7621 129.591 86.6292V19.7707C129.591 18.6379 128.673 17.72 127.541 17.72C126.408 17.72 125.49 18.6379 125.49 19.7707V86.6295C125.49 87.7621 126.408 88.68 127.541 88.68Z" fill="white"/>
<path d="M60.0904 71.5632C59.4845 70.6065 58.2174 70.3226 57.2603 70.9283L44.1203 79.2512C43.1636 79.8574 42.8792 81.1242 43.4854 82.0812C44.0911 83.0374 45.3576 83.3223 46.3155 82.7161L59.4555 74.3933C60.4122 73.7871 60.6966 72.5202 60.0904 71.5632Z" fill="white"/>
<path d="M57.2609 88.7272L52.1667 91.9537C51.2097 92.5599 50.9253 93.8267 51.5315 94.7835C52.1386 95.7422 53.407 96.0241 54.3613 95.4187L59.4555 92.1921C60.4125 91.5862 60.6969 90.3191 60.0907 89.3624C59.4847 88.4056 58.2168 88.1207 57.2609 88.7272Z" fill="white"/>
<path d="M60.0905 80.4628C59.4846 79.5063 58.2175 79.2222 57.2604 79.8279L48.1435 85.6026C47.1868 86.2088 46.9024 87.4756 47.5086 88.4326C48.1143 89.3889 49.3808 89.6738 50.3387 89.0676L59.4556 83.2929C60.4123 82.6864 60.6967 81.4198 60.0905 80.4628Z" fill="white"/>
<path d="M7.60807 74.8167L27.1774 76.2006C30.037 76.3996 31.9127 73.2849 30.42 70.8543L28.121 67.1126L48.3337 54.6934C50.0189 53.6582 50.5458 51.4554 49.51 49.7696L45.8944 43.8856C44.861 42.2039 42.652 41.6765 40.9711 42.7098L20.7579 55.1293L18.4591 51.387C16.9621 48.9529 13.3336 49.2293 12.2248 51.8642L4.6164 69.9479C3.68398 72.1635 5.20894 74.6469 7.60807 74.8167ZM15.5626 54.508L17.7878 58.1297C18.6863 59.5918 20.5958 60.0443 22.0529 59.1482L42.6736 46.4783L45.7423 51.4723L25.1214 64.1423C23.6645 65.0375 23.2076 66.9507 24.1026 68.4076L26.3278 72.0287L8.71494 70.7835L15.5626 54.508Z" fill="white"/>
<path d="M136.364 0H107.466C106.333 0 105.415 0.917926 105.415 2.05077C105.415 3.18362 106.333 4.10155 107.466 4.10155H135.897V9.93477C131.705 9.93477 69.5998 9.93477 66.8545 9.93477V4.10155H97.8956C99.0284 4.10155 99.9463 3.18362 99.9463 2.05077C99.9463 0.917926 99.0284 0 97.8956 0H66.3878C64.3835 0 62.753 1.6305 62.753 3.63452V10.4015C62.753 12.0498 63.8563 13.4427 65.3626 13.8867V92.5134C64.3498 92.8117 63.5219 93.5401 63.0866 94.4865L51.8896 101.582L47.7563 95.0566C47.1501 94.0999 45.883 93.816 44.9263 94.4217C43.9695 95.0279 43.6852 96.2947 44.2914 97.2518L48.4252 103.778C44.7595 106.101 28.353 116.498 25.6933 118.183L12.6829 97.6425L18.8582 93.731L23.9387 101.752C24.8612 103.208 26.7966 103.643 28.254 102.72L33.3539 99.4898C34.8105 98.5667 35.2447 96.6308 34.3219 95.1747L29.2417 87.1543L35.4173 83.2428L39.1699 89.1671C39.7758 90.1238 41.0429 90.4077 42 89.802C42.9567 89.1958 43.2411 87.929 42.6349 86.9719L38.7212 80.7936C37.5976 79.019 35.2513 78.4921 33.4764 79.6165L10.2332 94.3391C8.46327 95.4608 7.93553 97.8131 9.05662 99.5836L22.2286 120.379L1.66072 133.413C-1.34763 135.32 -0.00369217 140.001 3.57204 140.001H12.646C13.6257 140.001 14.5809 139.724 15.4088 139.199L67.1638 106.401H67.9141V118.409C67.9141 121.051 70.0636 123.201 72.7058 123.201L82.2006 123.201C83.226 132.634 91.2366 140.001 100.938 140.001C110.639 140.001 118.649 132.634 119.675 123.201H135.206C137.849 123.201 139.998 121.051 139.998 118.409C139.998 116.452 139.998 6.77794 139.998 3.63534C139.999 1.6305 138.369 0 136.364 0ZM25.7773 89.3484L30.336 96.5458L26.8822 98.7335L22.3232 91.5358C24.4412 90.1944 23.6576 90.6907 25.7773 89.3484ZM13.2139 135.734C13.0439 135.842 12.8475 135.898 12.6466 135.898H5.40105C8.07854 134.202 60.4553 101.01 62.753 99.5538V102.766C62.753 103.232 62.8558 103.741 63.0321 104.163L13.2139 135.734ZM82.1984 119.099H72.7063C72.3257 119.099 72.0162 118.789 72.0162 118.408V106.401H89.2112C85.1906 109.608 82.7275 114.24 82.1984 119.099ZM100.938 135.898C92.8055 135.898 86.1892 129.282 86.1892 121.15C86.1892 113.017 92.8055 106.401 100.938 106.401C109.071 106.401 115.687 113.017 115.687 121.15C115.687 129.282 109.071 135.898 100.938 135.898ZM135.897 118.408C135.897 118.789 135.588 119.099 135.207 119.099L119.678 119.098C119.138 114.133 116.593 109.529 112.666 106.4H135.898V118.408H135.897ZM135.897 102.299C132.904 102.299 69.8454 102.299 66.8545 102.299V96.4654H135.897V102.299ZM135.897 92.3638H69.4642V14.0363H135.897V92.3638Z" fill="white"/>
</g>
<defs>
<clipPath id="clip0_8006_852">
<rect width="140" height="140" fill="white"/>
</clipPath>
</defs>
</svg>
