<svg width="140" height="140" viewBox="0 0 140 140" fill="none" xmlns="http://www.w3.org/2000/svg">
<g clip-path="url(#clip0_8006_821)">
<path d="M124.551 27.2378C124.074 25.822 123.069 24.6886 121.72 24.046L72.3516 0.533809C70.857 -0.177936 69.1429 -0.177936 67.6485 0.533809L18.2797 24.046C16.9309 24.6886 15.9257 25.822 15.4486 27.2378C14.9717 28.6534 15.0866 30.1641 15.7715 31.4916L18.2827 36.3565C19.2548 38.2399 21.1502 39.3238 23.131 39.3235C23.6385 39.3235 24.1517 39.2511 24.6564 39.104V123.594C24.6564 126.61 27.1097 129.063 30.1251 129.063H30.1259V134.531C30.1259 137.547 32.5792 140 35.5946 140H41.0632C44.0786 140 46.5319 137.547 46.5319 134.531V129.063H59.0622C60.5724 129.063 61.7965 127.838 61.7965 126.328C61.7965 124.819 60.5724 123.594 59.0622 123.594H30.1251V92.8272H109.874V123.594H80.9368C79.4267 123.594 78.2025 124.819 78.2025 126.328C78.2025 127.838 79.4267 129.063 80.9368 129.063H93.468V134.531C93.468 137.547 95.9212 140 98.9366 140H104.405C107.421 140 109.874 137.547 109.874 134.531V129.063H109.875C112.89 129.063 115.343 126.61 115.343 123.594V39.0985C117.817 39.8203 120.496 38.7222 121.717 36.3568L124.228 31.4916C124.913 30.1641 125.028 28.6534 124.551 27.2378ZM41.0632 134.531H35.5946V129.063H41.0632V134.531ZM104.405 134.531H98.9364V129.063H104.405V134.531ZM30.1251 36.599L69.9998 17.7743L109.874 36.599V53.1685H30.1251V36.599ZM30.1251 87.3585V58.6372H109.874V87.3585H30.1251ZM116.861 33.8497C116.861 33.8497 116.86 33.8494 116.858 33.8486C116.858 33.8483 116.858 33.8483 116.858 33.8483L71.1671 12.278C70.7974 12.1036 70.3987 12.0163 69.9998 12.0163C69.6009 12.0163 69.2022 12.1036 68.8325 12.278L23.1424 33.8483L20.6312 28.9834L69.9998 5.47118L119.368 28.9831L116.861 33.8497Z" fill="white"/>
<path d="M82.891 73.9046C80.9627 68.4559 75.7823 64.7952 69.9997 64.7952C64.2172 64.7952 59.0367 68.4562 57.1087 73.9043C56.5168 75.5766 56.7749 77.4398 57.7986 78.8884C58.8223 80.3365 60.4919 81.2011 62.2649 81.2011H77.7343C79.5072 81.2011 81.1768 80.3365 82.2006 78.8884C83.2246 77.4398 83.4827 75.5766 82.891 73.9046ZM62.2651 75.7325L62.2643 75.7289C63.4209 72.46 66.5299 70.2638 70 70.2638C73.4701 70.2638 76.5791 72.46 77.7349 75.7325H62.2651Z" fill="white"/>
<path d="M82.891 39.7144C80.9627 34.2657 75.7823 30.6047 69.9997 30.6047C64.2172 30.6047 59.0367 34.2657 57.1087 39.7139C56.5168 41.3859 56.7749 43.2491 57.7986 44.6977C58.8223 46.1458 60.4919 47.0104 62.2649 47.0104H77.7343C79.5072 47.0104 81.1768 46.1458 82.2006 44.6977C83.2246 43.2494 83.4827 41.3862 82.891 39.7144ZM62.2651 41.542L62.2643 41.5385C63.4209 38.2696 66.5299 36.0734 70 36.0734C73.4701 36.0734 76.5791 38.2696 77.7349 41.542H62.2651Z" fill="white"/>
<path d="M82.2008 113.078C83.2248 111.63 83.4827 109.767 82.891 108.095C80.9627 102.646 75.7823 98.9851 69.9997 98.9851C64.2172 98.9851 59.0367 102.646 57.1087 108.095C56.5168 109.767 56.7749 111.63 57.7986 113.078C58.8223 114.526 60.4919 115.391 62.2649 115.391H77.7343C79.5075 115.391 81.1771 114.526 82.2008 113.078ZM62.2651 109.922L62.2643 109.919C63.4209 106.65 66.5299 104.454 70 104.454C73.4701 104.454 76.5791 106.65 77.7349 109.922H62.2651Z" fill="white"/>
<path d="M70 129.062C71.5101 129.062 72.7343 127.838 72.7343 126.328C72.7343 124.818 71.5101 123.594 70 123.594C68.4898 123.594 67.2656 124.818 67.2656 126.328C67.2656 127.838 68.4898 129.062 70 129.062Z" fill="white"/>
</g>
<defs>
<clipPath id="clip0_8006_821">
<rect width="140" height="140" fill="white"/>
</clipPath>
</defs>
</svg>
