<svg width="140" height="140" viewBox="0 0 140 140" fill="none" xmlns="http://www.w3.org/2000/svg">
<path d="M134.13 110.38V105.191C134.13 102.61 132.03 100.51 129.449 100.51H121.528V55.352C121.528 54.2191 120.609 53.3012 119.477 53.3012C118.344 53.3012 117.426 54.2191 117.426 55.352V99.7281C116.84 99.2327 116.083 98.9327 115.258 98.9327H108.228C107.029 98.9327 105.978 99.5643 105.381 100.51H102.526V76.3837C104.896 76.2573 106.787 74.2957 106.787 71.8952V63.0632C106.787 60.5814 104.768 58.5624 102.286 58.5624H63.1514V26.6402H80.7663H80.8975V47.4004C80.8975 48.6738 81.6107 49.8066 82.7588 50.356C83.9073 50.9053 85.2364 50.7508 86.2307 49.9499L90.2896 46.6692L94.349 49.9521C94.9473 50.4339 95.6684 50.6814 96.3987 50.6814C96.8794 50.6814 97.3642 50.5739 97.8206 50.356C98.969 49.8064 99.6827 48.6741 99.6827 47.4007V26.6402H99.8129H117.426V45.2293C117.426 46.3621 118.345 47.2801 119.477 47.2801C120.61 47.2801 121.528 46.3621 121.528 45.2293V26.5521C123.208 26.1849 124.471 24.687 124.471 22.8979V16.8C124.471 14.7366 122.793 13.0577 120.729 13.0577H115.803C115.144 4.87895 110.507 0.0628906 103.114 0.0628906C100.629 0.0628906 98.4011 0.591172 96.4512 1.63133C95.807 0.650234 94.6988 0 93.4401 0H87.0663C85.8194 0 84.7188 0.637656 84.0724 1.60344C82.1362 0.581875 79.9271 0.0628906 77.4659 0.0628906C70.0732 0.0628906 65.4366 4.87895 64.7779 13.0577H59.8502C57.7869 13.0577 56.108 14.7366 56.108 16.8V22.8979C56.108 24.6865 57.3699 26.1838 59.0496 26.5519V58.5621H49.587C52.559 54.7211 54.3339 49.9095 54.3339 44.6884C54.3339 32.1614 44.1423 21.9699 31.6154 21.9699C19.0884 21.9699 8.8968 32.1612 8.8968 44.6884C8.8968 49.9095 10.6717 54.7211 13.6437 58.5621H8.7918C6.31008 58.5621 4.29102 60.5812 4.29102 63.0629V71.8949C4.29102 74.2965 6.18293 76.2587 8.55391 76.3837V135.499C8.55391 137.981 10.573 140 13.0547 140H129.449C132.03 140 134.13 137.9 134.13 135.319V123.104C135.076 122.508 135.709 121.456 135.709 120.257V113.228C135.709 112.029 135.077 110.977 134.13 110.38ZM97.7618 17.1596V22.5386H82.8171V17.1596H97.7618ZM95.5809 45.6728L91.5794 42.437C90.8274 41.8288 89.7528 41.8286 89.0009 42.4367L84.9988 45.6712V26.6399H95.5809V45.6728ZM120.369 22.5386H101.863V17.1596H120.369V22.5386ZM110.297 8.12465C111.142 9.71742 111.517 11.5451 111.676 13.058H102.574C102.913 12.378 103.359 11.7945 103.924 11.4715C104.907 10.9091 105.248 9.65617 104.686 8.67316C104.124 7.68961 102.87 7.34918 101.888 7.91109C99.7563 9.13035 98.7041 11.3433 98.1881 13.058H97.0413V6.13539C98.6847 4.81141 100.68 4.16445 103.114 4.16445C106.532 4.16445 108.882 5.46 110.297 8.12465ZM92.9397 4.10156V13.058H87.5667V4.10156H92.9397ZM70.2832 8.12465C71.6983 5.46 74.0477 4.16473 77.4656 4.16473C79.8653 4.16473 81.8363 4.79309 83.4648 6.07988V13.058H82.3178C81.8015 11.3414 80.7491 9.13008 78.6176 7.91109C77.6343 7.34836 76.3815 7.68961 75.8193 8.67316C75.2571 9.65645 75.5983 10.9093 76.5816 11.4715C77.1468 11.7947 77.593 12.3777 77.9318 13.058H68.904C69.0632 11.5451 69.4375 9.71742 70.2832 8.12465ZM60.2095 17.1596H78.7152V22.5386H60.2095V17.1596ZM130.029 105.191V109.861H118.624V104.612H129.449C129.769 104.612 130.029 104.872 130.029 105.191ZM114.522 109.861H108.963V103.034H114.522V109.861ZM58.8828 109.861V105.191C58.8828 104.872 59.1429 104.612 59.4625 104.612H104.861V109.861H58.8828ZM102.685 63.0629V71.8949C102.685 72.115 102.506 72.2941 102.286 72.2941H90.793C89.6604 72.2941 88.7422 73.2121 88.7422 74.3449C88.7422 75.4778 89.6604 76.3957 90.793 76.3957H98.4246V100.51H70.8837V76.396L80.6676 76.3957C81.8002 76.3957 82.7184 75.4778 82.7184 74.3449C82.7184 73.2121 81.8002 72.2941 80.6676 72.2941H74.0449V62.6637H102.286C102.506 62.6637 102.685 62.8428 102.685 63.0629ZM69.9434 72.2944H41.1367V65.3078C42.6888 64.5884 44.1454 63.6992 45.4846 62.6637H69.9434V72.2944ZM31.6156 26.0714C41.881 26.0714 50.2326 34.423 50.2326 44.6884C50.2326 54.9538 41.881 63.3054 31.6156 63.3054C21.3502 63.3054 12.9986 54.9538 12.9986 44.6884C12.9986 34.423 21.35 26.0714 31.6156 26.0714ZM8.39258 71.8949V63.0629C8.39258 62.8428 8.57168 62.6637 8.7918 62.6637H17.7463C21.5865 65.6335 26.3965 67.407 31.6156 67.407C33.4835 67.407 35.2975 67.1757 37.0354 66.7486V72.2941H8.7918C8.57168 72.2941 8.39258 72.1148 8.39258 71.8949ZM12.6557 135.499V76.3957L40.1947 76.396V135.898H13.055C12.8346 135.898 12.6557 135.719 12.6557 135.499ZM44.2963 76.396H66.7821V100.51H59.4625C56.8813 100.51 54.7813 102.61 54.7813 105.191V135.319C54.7813 135.515 54.7974 135.708 54.8212 135.898H44.2963V76.396ZM59.4625 135.898C59.1429 135.898 58.8828 135.638 58.8828 135.319V123.624H67.9828C69.1154 123.624 70.0336 122.706 70.0336 121.573C70.0336 120.44 69.1154 119.522 67.9828 119.522H58.8831V113.963H131.607V119.522H78.1074C76.9748 119.522 76.0566 120.44 76.0566 121.573C76.0566 122.706 76.9748 123.624 78.1074 123.624H104.862V135.898H59.4625ZM108.963 123.623H114.522V135.898H108.963V123.623ZM129.449 135.898H118.624V123.623H130.029V135.318C130.029 135.638 129.769 135.898 129.449 135.898Z" fill="white"/>
<path d="M28.5173 60.0469H34.7151C36.5999 60.0469 38.133 58.5137 38.133 56.6289V43.5958C38.133 42.648 37.7448 41.7894 37.1197 41.1698C37.9184 39.8683 38.267 38.3121 38.086 36.765C37.7664 34.0323 36.0842 31.5673 33.3495 29.8238C32.5787 29.3319 31.6351 29.2007 30.7609 29.4637C29.8818 29.7281 29.1621 30.3633 28.7869 31.2063C28.6242 31.5719 28.1895 32.0075 27.7296 32.4682C26.6241 33.5757 25.11 35.0921 25.11 37.7625C25.11 38.999 25.4499 40.1778 26.0857 41.1977C25.4767 41.8151 25.0994 42.662 25.0994 43.5958V56.6289C25.0994 58.5134 26.6325 60.0469 28.5173 60.0469ZM34.0315 55.9453H29.2009V44.2794H34.0315V55.9453ZM30.6321 35.3656C31.0721 34.9251 31.5506 34.4457 31.9607 33.8688C32.9186 34.647 33.8387 35.7621 34.0118 37.2411C34.102 38.0127 33.8718 38.7846 33.3801 39.3586C32.9495 39.8612 32.3605 40.1513 31.722 40.1753C31.0598 40.2051 30.4287 39.9615 29.9515 39.5021C29.4741 39.0425 29.2113 38.4248 29.2113 37.7623C29.2116 36.832 29.6986 36.3007 30.6321 35.3656Z" fill="white"/>
</svg>
