<svg width="24" height="25" viewBox="0 0 24 25" fill="none" xmlns="http://www.w3.org/2000/svg">
<g clip-path="url(#clip0_8002_155)">
<path opacity="0.998" fill-rule="evenodd" clip-rule="evenodd" d="M3.70961 2.62599C4.05729 2.58148 4.35354 2.68169 4.59838 2.92659C5.64295 4.5181 6.68176 6.11357 7.71483 7.71299C7.81724 8.11156 7.77878 8.49695 7.59941 8.86913C7.03388 9.8327 6.44521 10.7807 5.83342 11.7132C6.09001 12.3892 6.42474 13.0213 6.83761 13.6093C7.93352 15.154 9.2455 16.4836 10.7736 17.598C11.4331 18.0729 12.1449 18.4544 12.9089 18.7425C13.7608 18.19 14.6187 17.6466 15.4829 17.1124C15.7426 16.9589 16.0196 16.851 16.3139 16.7887C16.4601 16.7732 16.6064 16.7732 16.7526 16.7887C16.8245 16.8132 16.8938 16.844 16.9603 16.8812C18.5517 17.9126 20.1369 18.9531 21.7158 20.0027C21.8797 20.1903 21.9642 20.4099 21.9697 20.6617C21.9531 20.9437 21.8723 21.2058 21.7273 21.4479C21.0761 22.3393 20.349 23.168 19.5458 23.9336C19.2691 24.1877 18.9613 24.3958 18.6224 24.5579C18.4692 24.5829 18.3153 24.6021 18.1607 24.6157C17.0528 24.5873 15.9832 24.3676 14.9519 23.9567C13.4012 23.3232 11.9623 22.506 10.6351 21.5057C7.60255 19.2159 4.96702 16.5375 2.72851 13.4706C1.91324 12.3157 1.22838 11.0825 0.673954 9.77092C0.229525 8.69349 -0.00518101 7.57204 -0.0301334 6.40656C-0.0335107 6.17778 0.0242083 5.96584 0.143003 5.77068C0.378261 5.41931 0.639881 5.08789 0.927888 4.77641C1.65774 4.00626 2.46185 3.33186 3.34025 2.75317C3.46367 2.70299 3.58678 2.6606 3.70961 2.62599Z" fill="#FCAE47"/>
<path opacity="0.999" fill-rule="evenodd" clip-rule="evenodd" d="M15.3333 1.625C15.3777 2.1957 15.3925 2.77465 15.3779 3.36184C16.8657 3.35091 18.353 3.36249 19.8398 3.39658C21.2101 3.69969 22.1062 4.54496 22.5281 5.93237C22.5693 6.10005 22.599 6.26987 22.6173 6.44184C22.6285 8.50287 22.6322 10.5639 22.6285 12.625C21.8848 12.625 21.1412 12.625 20.3975 12.625C20.4012 10.6952 20.3975 8.76534 20.3864 6.83553C20.3469 6.24648 20.0532 5.87209 19.5051 5.71237C18.1298 5.67851 16.7541 5.66693 15.3779 5.67763C15.3853 6.25679 15.3779 6.83573 15.3556 7.41447C14.1088 6.45493 12.8669 5.49001 11.6299 4.51974C12.865 3.55461 14.0995 2.58971 15.3333 1.625Z" fill="#FCAE47"/>
</g>
<defs>
<clipPath id="clip0_8002_155">
<rect width="24" height="24" fill="white" transform="translate(0 0.634766)"/>
</clipPath>
</defs>
</svg>
