<svg width="24" height="25" viewBox="0 0 24 25" fill="none" xmlns="http://www.w3.org/2000/svg">
<g clip-path="url(#clip0_8002_142)">
<path d="M12 3.63477C7.03125 3.63477 3 7.66602 3 12.6348C3 17.6035 7.03125 21.6348 12 21.6348C12.8297 21.6348 13.5 22.3051 13.5 23.1348C13.5 23.9645 12.8297 24.6348 12 24.6348C5.37188 24.6348 0 19.2629 0 12.6348C0 6.00664 5.37188 0.634766 12 0.634766C18.6281 0.634766 24 6.00664 24 12.6348V14.1348C24 16.6191 21.9844 18.6348 19.5 18.6348C18.1266 18.6348 16.8937 18.016 16.0687 17.0457C15 18.0301 13.5703 18.6348 12 18.6348C8.68594 18.6348 6 15.9488 6 12.6348C6 9.3207 8.68594 6.63477 12 6.63477C13.3078 6.63477 14.5172 7.05195 15.5016 7.76445C15.7688 7.53008 16.1156 7.38477 16.5 7.38477C17.3297 7.38477 18 8.05508 18 8.88477V12.6348V14.1348C18 14.9645 18.6703 15.6348 19.5 15.6348C20.3297 15.6348 21 14.9645 21 14.1348V12.6348C21 7.66602 16.9688 3.63477 12 3.63477ZM15 12.6348C15 11.8391 14.6839 11.0761 14.1213 10.5134C13.5587 9.95084 12.7956 9.63477 12 9.63477C11.2044 9.63477 10.4413 9.95084 9.87868 10.5134C9.31607 11.0761 9 11.8391 9 12.6348C9 13.4304 9.31607 14.1935 9.87868 14.7561C10.4413 15.3187 11.2044 15.6348 12 15.6348C12.7956 15.6348 13.5587 15.3187 14.1213 14.7561C14.6839 14.1935 15 13.4304 15 12.6348Z" fill="#FCAE47"/>
</g>
<defs>
<clipPath id="clip0_8002_142">
<rect width="24" height="24" fill="white" transform="translate(0 0.634766)"/>
</clipPath>
</defs>
</svg>
