<svg width="60" height="60" viewBox="0 0 60 60" fill="none" xmlns="http://www.w3.org/2000/svg">
<path d="M33.1847 10.9156C27.0449 4.77594 17.0551 4.77607 10.9155 10.9156C7.94137 13.8898 6.30347 17.844 6.30347 22.0502C6.30347 26.2563 7.94137 30.2105 10.9155 33.1847C13.9856 36.2549 18.0172 37.7894 22.0501 37.7894C26.082 37.7894 30.1153 36.2542 33.1847 33.1847C36.1589 30.2105 37.7968 26.2563 37.7968 22.0502C37.7968 17.844 36.1589 13.8897 33.1847 10.9156ZM31.6977 31.6977C26.3782 37.0174 17.7222 37.0172 12.4025 31.6977C9.82556 29.1207 8.40637 25.6944 8.40637 22.0501C8.40637 18.4056 9.82556 14.9795 12.4025 12.4025C15.0624 9.74273 18.5563 8.41278 22.0501 8.41278C25.544 8.41278 29.0379 9.74273 31.6977 12.4025C34.2747 14.9795 35.6939 18.4056 35.6939 22.0501C35.6939 25.6944 34.2747 29.1207 31.6977 31.6977Z" fill="#FCAE47"/>
<path d="M22.05 9.5979C21.4693 9.5979 20.9985 10.0687 20.9985 10.6494C20.9985 11.23 21.4693 11.7008 22.05 11.7008C27.7566 11.7008 32.3994 16.3435 32.3994 22.0502C32.3994 22.6309 32.8702 23.1017 33.4509 23.1017C34.0315 23.1017 34.5023 22.6309 34.5023 22.0502C34.5023 15.1839 28.9162 9.5979 22.05 9.5979Z" fill="#FCAE47"/>
<path d="M57.919 47.8715L41.8414 31.794C43.3185 28.8008 44.1002 25.4857 44.1002 22.0502C44.1002 16.1604 41.8066 10.6232 37.6418 6.45841C33.4771 2.29361 27.9399 0 22.0501 0C16.1603 0 10.6231 2.29361 6.45841 6.45827C2.29361 10.6231 0 16.1603 0 22.0501C0 27.9399 2.29361 33.4771 6.45841 37.6418C10.6231 41.8066 16.1603 44.1002 22.0501 44.1002C25.4857 44.1002 28.8007 43.3185 31.7939 41.8416L47.8714 57.919C49.2133 59.261 50.9975 60 52.8953 60C54.793 60 56.5773 59.261 57.9192 57.919C60.6891 55.1489 60.6891 50.6417 57.919 47.8715ZM9.24646 34.8539C5.82648 31.4339 3.94294 26.8868 3.94294 22.0502C3.94294 17.2136 5.82648 12.6666 9.24646 9.24646C12.6664 5.82648 17.2134 3.94294 22.0501 3.94294C26.8867 3.94294 31.4338 5.82648 34.8538 9.24646C38.2737 12.6664 40.1573 17.2136 40.1573 22.0501C40.1573 26.8867 38.2739 31.4338 34.8538 34.8538C31.4338 38.2737 26.8867 40.1573 22.0501 40.1573C17.2134 40.1573 12.6664 38.2739 9.24646 34.8539ZM55.131 55.131C54.5338 55.7282 53.7398 56.0571 52.8952 56.0571C52.0506 56.0571 51.2567 55.7282 50.6594 55.131L35.2473 39.7188C36.0863 39.0894 36.8869 38.3969 37.6418 37.6419C38.3968 36.887 39.0893 36.0865 39.7187 35.2474L55.1309 50.6596C56.3637 51.8923 56.3637 53.8983 55.131 55.131Z" fill="#FCAE47"/>
</svg>
