<svg width="40" height="40" viewBox="0 0 40 40" fill="none" xmlns="http://www.w3.org/2000/svg">
<rect width="40" height="40" rx="20" fill="white"/>
<path d="M20.8277 11.5486C18.2693 8.99028 14.1066 8.99033 11.5483 11.5486C10.309 12.7879 9.62653 14.4356 9.62653 16.1883C9.62653 17.9409 10.309 19.5886 11.5483 20.8279C12.8276 22.1073 14.5075 22.7467 16.188 22.7467C17.8681 22.7467 19.5487 22.1069 20.8277 20.8279C22.067 19.5886 22.7495 17.9409 22.7495 16.1883C22.7495 14.4356 22.067 12.7879 20.8277 11.5486ZM20.2081 20.2083C17.9915 22.425 14.3846 22.4249 12.168 20.2083C11.0941 19.1345 10.5028 17.7068 10.5028 16.1882C10.5028 14.6696 11.0941 13.242 12.168 12.1682C13.2763 11.0599 14.7322 10.5057 16.188 10.5057C17.6439 10.5057 19.0998 11.0599 20.2081 12.1682C21.2819 13.242 21.8732 14.6696 21.8732 16.1882C21.8732 17.7068 21.2819 19.1345 20.2081 20.2083Z" fill="#FCAE47"/>
<path d="M16.1881 10.9995C15.9462 10.9995 15.75 11.1957 15.75 11.4376C15.75 11.6796 15.9462 11.8758 16.1881 11.8758C18.566 11.8758 20.5006 13.8103 20.5006 16.1883C20.5006 16.4302 20.6968 16.6264 20.9388 16.6264C21.1807 16.6264 21.3769 16.4302 21.3769 16.1883C21.3769 13.3271 19.0492 10.9995 16.1881 10.9995Z" fill="#FCAE47"/>
<path d="M31.1343 26.9476L24.4349 20.2483C25.0504 19.001 25.3761 17.6197 25.3761 16.1881C25.3761 13.7339 24.4204 11.4266 22.685 9.69116C20.9496 7.95572 18.6423 7 16.1881 7C13.7338 7 11.4265 7.95572 9.69116 9.6911C7.95572 11.4265 7 13.7338 7 16.1881C7 18.6423 7.95572 20.9496 9.69116 22.685C11.4265 24.4204 13.7338 25.3761 16.1881 25.3761C17.6197 25.3761 19.001 25.0504 20.2482 24.435L26.9475 31.1343C27.5067 31.6935 28.2502 32.0014 29.041 32.0014C29.8317 32.0014 30.5752 31.6935 31.1344 31.1343C32.2886 29.98 32.2886 28.1019 31.1343 26.9476ZM10.8529 21.5233C9.42784 20.0982 8.64299 18.2035 8.64299 16.1881C8.64299 14.1727 9.42784 12.278 10.8529 10.8529C12.278 9.42784 14.1727 8.64299 16.1881 8.64299C18.2034 8.64299 20.0982 9.42784 21.5232 10.8529C22.9483 12.278 23.7331 14.1727 23.7331 16.1881C23.7331 18.2034 22.9483 20.0982 21.5232 21.5232C20.0982 22.9483 18.2034 23.7331 16.1881 23.7331C14.1727 23.7331 12.278 22.9483 10.8529 21.5233ZM29.9725 29.9725C29.7237 30.2214 29.3928 30.3584 29.0409 30.3584C28.689 30.3584 28.3582 30.2214 28.1093 29.9725L21.6872 23.5504C22.0368 23.2882 22.3704 22.9996 22.685 22.685C22.9996 22.3705 23.2881 22.0369 23.5504 21.6872L29.9725 28.1093C30.4862 28.623 30.4862 29.4589 29.9725 29.9725Z" fill="#FCAE47"/>
</svg>
