<svg width="160" height="160" viewBox="0 0 160 160" fill="none" xmlns="http://www.w3.org/2000/svg">
<rect width="160" height="160" rx="80" fill="white"/>
<path d="M112.5 75.6699C115.833 77.5944 115.833 82.4056 112.5 84.3301L67.5 110.311C64.1667 112.235 60 109.83 60 105.981L60 54.0192C60 50.1702 64.1667 47.7646 67.5 49.6891L112.5 75.6699Z" fill="#FCAE47"/>
<path d="M113.455 75.6682C116.848 77.5935 116.848 82.4065 113.455 84.3317L67.6364 110.322C64.2424 112.248 60 109.841 60 105.991L60 54.0094C60 50.1589 64.2424 47.7524 67.6364 49.6776L113.455 75.6682Z" fill="#FCAE47"/>
<path d="M104.991 76.7512C107.537 78.1951 107.537 81.8049 104.991 83.2488L70.6274 102.742C68.082 104.186 64.9001 102.381 64.9001 99.493L64.9001 60.507C64.9001 57.6192 68.082 55.8143 70.6274 57.2582L104.991 76.7512Z" fill="white"/>
</svg>
