<svg width="260" height="81" viewBox="0 0 260 81" fill="none" xmlns="http://www.w3.org/2000/svg">
<g clip-path="url(#clip0_6071_8973)">
<path d="M69.6032 40.7872C66.8692 37.206 62.7794 33.1384 59.0813 31.7275C58.2542 23.9342 52.7359 17.5252 45.4121 15.3777L55.8031 4.98707C56.7988 3.99132 56.7988 2.37684 55.8031 1.38109C54.807 0.38534 53.1928 0.38534 52.1971 1.38109L40.0312 13.5467L27.9707 1.48682C26.9746 0.491068 25.3604 0.491068 24.3647 1.48682C23.3689 2.48257 23.3689 4.09705 24.3647 5.09246L34.6502 15.3773C27.3339 17.5232 21.8197 23.9213 20.9841 31.7037C17.269 33.0914 13.1473 37.1853 10.397 40.7872C7.50355 44.5767 2.6499 52.267 2.6499 61.1921C2.6499 67.6218 7.88125 72.8524 14.311 72.8524C20.0737 72.8524 24.8712 68.6488 25.8041 63.1475C28.7692 66.4312 32.8546 68.6804 37.4512 69.2958V78.0851C37.4512 79.4933 38.5924 80.6349 40.0009 80.6349C41.4094 80.6349 42.5506 79.4933 42.5506 78.0851V69.2958C47.1469 68.6804 51.2323 66.4312 54.1971 63.1475C55.1303 68.6491 59.9271 72.8524 65.6902 72.8524C72.1196 72.8524 77.3506 67.6218 77.3506 61.1921C77.3499 52.2667 72.4962 44.5767 69.6032 40.7872ZM54.0295 39.5025H25.9713V36.3126H54.0295V39.5025ZM25.9713 44.6019H54.0295V47.7921H25.9713V44.6019ZM40.0312 19.7027C46.913 19.7027 52.6516 24.674 53.8551 31.2131H26.2073C27.4107 24.674 33.1493 19.7027 40.0312 19.7027ZM20.8719 61.1917C20.8719 64.8096 17.9288 67.7527 14.311 67.7527C10.6931 67.7527 7.74934 64.8096 7.74934 61.1917C7.74934 50.5791 16.1525 40.8232 20.8719 37.5093V50.3418V61.1917ZM40.0006 64.3711C33.1357 64.3711 27.4107 59.4134 26.2076 52.8915H53.7932C52.5897 59.4134 46.8654 64.3711 40.0006 64.3711ZM65.6898 67.7527C62.072 67.7527 59.1289 64.8096 59.1289 61.1917V50.3418V37.5093C63.8479 40.8232 72.2508 50.5791 72.2508 61.1917C72.2505 64.8096 69.3074 67.7527 65.6898 67.7527Z" fill="#FCAE47"/>
</g>
<g clip-path="url(#clip1_6071_8973)">
<path d="M159.603 40.7872C156.869 37.206 152.779 33.1384 149.081 31.7275C148.254 23.9342 142.736 17.5252 135.412 15.3777L145.803 4.98707C146.799 3.99132 146.799 2.37684 145.803 1.38109C144.807 0.38534 143.193 0.38534 142.197 1.38109L130.031 13.5467L117.971 1.48682C116.975 0.491068 115.36 0.491068 114.365 1.48682C113.369 2.48257 113.369 4.09705 114.365 5.09246L124.65 15.3773C117.334 17.5232 111.82 23.9213 110.984 31.7037C107.269 33.0914 103.147 37.1853 100.397 40.7872C97.5035 44.5767 92.6499 52.267 92.6499 61.1921C92.6499 67.6218 97.8812 72.8524 104.311 72.8524C110.074 72.8524 114.871 68.6488 115.804 63.1475C118.769 66.4312 122.855 68.6804 127.451 69.2958V78.0851C127.451 79.4933 128.592 80.6349 130.001 80.6349C131.409 80.6349 132.551 79.4933 132.551 78.0851V69.2958C137.147 68.6804 141.232 66.4312 144.197 63.1475C145.13 68.6491 149.927 72.8524 155.69 72.8524C162.12 72.8524 167.351 67.6218 167.351 61.1921C167.35 52.2667 162.496 44.5767 159.603 40.7872ZM144.029 39.5025H115.971V36.3126H144.029V39.5025ZM115.971 44.6019H144.029V47.7921H115.971V44.6019ZM130.031 19.7027C136.913 19.7027 142.652 24.674 143.855 31.2131H116.207C117.411 24.674 123.149 19.7027 130.031 19.7027ZM110.872 61.1917C110.872 64.8096 107.929 67.7527 104.311 67.7527C100.693 67.7527 97.7493 64.8096 97.7493 61.1917C97.7493 50.5791 106.153 40.8232 110.872 37.5093V50.3418V61.1917ZM130.001 64.3711C123.136 64.3711 117.411 59.4134 116.208 52.8915H143.793C142.59 59.4134 136.865 64.3711 130.001 64.3711ZM155.69 67.7527C152.072 67.7527 149.129 64.8096 149.129 61.1917V50.3418V37.5093C153.848 40.8232 162.251 50.5791 162.251 61.1917C162.25 64.8096 159.307 67.7527 155.69 67.7527Z" fill="#FCAE47"/>
</g>
<g clip-path="url(#clip2_6071_8973)">
<path d="M249.603 40.7872C246.869 37.206 242.779 33.1384 239.081 31.7275C238.254 23.9342 232.736 17.5252 225.412 15.3777L235.803 4.98707C236.799 3.99132 236.799 2.37684 235.803 1.38109C234.807 0.38534 233.193 0.38534 232.197 1.38109L220.031 13.5467L207.971 1.48682C206.975 0.491068 205.36 0.491068 204.365 1.48682C203.369 2.48257 203.369 4.09705 204.365 5.09246L214.65 15.3773C207.334 17.5232 201.82 23.9213 200.984 31.7037C197.269 33.0914 193.147 37.1853 190.397 40.7872C187.504 44.5767 182.65 52.267 182.65 61.1921C182.65 67.6218 187.881 72.8524 194.311 72.8524C200.074 72.8524 204.871 68.6488 205.804 63.1475C208.769 66.4312 212.855 68.6804 217.451 69.2958V78.0851C217.451 79.4933 218.592 80.6349 220.001 80.6349C221.409 80.6349 222.551 79.4933 222.551 78.0851V69.2958C227.147 68.6804 231.232 66.4312 234.197 63.1475C235.13 68.6491 239.927 72.8524 245.69 72.8524C252.12 72.8524 257.351 67.6218 257.351 61.1921C257.35 52.2667 252.496 44.5767 249.603 40.7872ZM234.029 39.5025H205.971V36.3126H234.029V39.5025ZM205.971 44.6019H234.029V47.7921H205.971V44.6019ZM220.031 19.7027C226.913 19.7027 232.652 24.674 233.855 31.2131H206.207C207.411 24.674 213.149 19.7027 220.031 19.7027ZM200.872 61.1917C200.872 64.8096 197.929 67.7527 194.311 67.7527C190.693 67.7527 187.749 64.8096 187.749 61.1917C187.749 50.5791 196.153 40.8232 200.872 37.5093V50.3418V61.1917ZM220.001 64.3711C213.136 64.3711 207.411 59.4134 206.208 52.8915H233.793C232.59 59.4134 226.865 64.3711 220.001 64.3711ZM245.69 67.7527C242.072 67.7527 239.129 64.8096 239.129 61.1917V50.3418V37.5093C243.848 40.8232 252.251 50.5791 252.251 61.1917C252.25 64.8096 249.307 67.7527 245.69 67.7527Z" fill="#FCAE47"/>
</g>
<defs>
<clipPath id="clip0_6071_8973">
<rect width="80" height="80" fill="white" transform="translate(0 0.634521)"/>
</clipPath>
<clipPath id="clip1_6071_8973">
<rect width="80" height="80" fill="white" transform="translate(90 0.634521)"/>
</clipPath>
<clipPath id="clip2_6071_8973">
<rect width="80" height="80" fill="white" transform="translate(180 0.634521)"/>
</clipPath>
</defs>
</svg>
